<?xml version="1.0" encoding="UTF-8"?>
<svg id="Layer_1" data-name="Layer 1" xmlns="http://www.w3.org/2000/svg" viewBox="0 0 1445.67 1275.59">
  <defs>
    <style>
      .cls-1 {
        fill: #d34533;
      }

      .cls-2 {
        fill: #f4c881;
      }

      .cls-2, .cls-3, .cls-4 {
        isolation: isolate;
      }

      .cls-5 {
        fill: #221f20;
      }

      .cls-4, .cls-6 {
        fill: #df873c;
      }

      .cls-7 {
        fill: #001321;
      }
    </style>
  </defs>
  <g>
    <path class="cls-5" d="M1193.57,787.4c-38.4,3.35-35.87,65.1,5.18,60.03,33.24-4.1,31.28-63.21-5.18-60.03ZM1208.25,826.24c-8.55,16.53-31.5,9.52-29.83-10.08.46-5.38,4.96-14.38,10.66-15.67,16.13-3.66,26.25,12.07,19.17,25.74Z"/>
    <path class="cls-5" d="M1133.28,787.4c-46.55,4.09-27.21,79.64,13.95,56.75,26.05-14.49,16.33-59.41-13.95-56.75ZM1147.96,826.24c-8.55,16.53-31.5,9.52-29.83-10.08.46-5.38,4.96-14.38,10.66-15.67,16.13-3.66,26.25,12.07,19.17,25.74Z"/>
    <path class="cls-5" d="M1087.93,790.07v19.85l-19.34.66c-2.79-2,.66-23.75-9.53-22.24-7.04,1.04-5.42,19.91-5.21,25.6.27,7.22,1.09,21.4,2.55,28.08,1.93,8.85,12.24,5.03,12.24.24v-18.72h19.29v17.58c0,8.36,12.43,13.49,13.67.05.71-7.67.23-49.74-3.99-53.97-2.79-2.8-9.68-.75-9.68,2.87Z"/>
    <path class="cls-5" d="M912.26,808.02c-1.93-4.08-8.47-18.98-12.13-19.69-1.23-.24-3.17-.2-4.34.21-3.65,1.29-18.23,40.59-20.05,46.88-1.58,5.45-4.22,10.37,3.03,12.83,7.1-.95,7.51-9.2,10.03-14.51l1.29-.98c4.33.38,16.31-1.57,19.15.97,2.14,1.91,3.94,10.56,6.7,12.58,4.51,3.29,9.99-.74,9.27-5.78-.91-6.39-9.75-25.72-12.95-32.51ZM893.92,821.26l3.96-11.33,5.06,9.65c-2.1,2.8-5.93,1.46-9.02,1.68Z"/>
    <path class="cls-5" d="M990.66,809.05c-2.69-.65-8.83.92-9.29-2.09-.15-.97.04-2.99.45-3.88,3.25-6.97,13.19,2.1,17.44-4.13,2.55-7.24-6.35-11.96-12.54-11.49-13.08.98-22.09,13.27-16.09,25.74,5.3,11.02,16.83,5.44,21.52,11.38,5.9,7.48-3.86,12.14-11.12,8.85-5-2.27-9.54-15.61-16.18-8.75-7.95,8.21,9.18,21.82,18.13,22.68,28.2,2.71,31.33-32.62,7.68-38.31Z"/>
    <path class="cls-5" d="M794.15,785.47c-2.99.59-8.51,3.09-9.41,5.97-1.45,4.63-.69,29.73-.3,36.12.21,3.37,1.78,18.43,3.9,19.61,5.24,2.91,8.8-1.66,9.46-6.11.66-4.46-.31-9.57.06-14.11,36.48,2.08,34.51-49-3.71-41.47ZM796.66,815.6l-1.22-20.43c22.59-3.81,23.31,21.39,1.22,20.43Z"/>
    <path class="cls-5" d="M951.86,816.94c3.11-4.92,13.6-21.85,12.21-26.63-9.78-13.76-18.45,16.22-20.8,16.18-4.51-4.89-12.68-21.26-20.16-20.21-1.42.2-3.55,1.4-4.05,2.83-.53,2.45-.39,4.86.34,7.24,1.85,6.08,14.81,19.59,16.25,24.58,1.67,5.8-3.1,30.35,10.78,26.24,8.79-2.6,2.68-19.99,3.59-24.65.28-1.43.92-4.13,1.84-5.59Z"/>
    <path class="cls-5" d="M868.38,834.88h-26.66v-39.14c0-4.59-5.49-10.98-10.16-6.76-3.49,3.15-3.34,23.83-3.51,29.5-.27,9.72-4.21,27.92,8.62,29.95,4,.63,26.37-.44,30.33-1.31,8.25-1.82,5.58-12.24,1.38-12.24Z"/>
    <path class="cls-5" d="M1248,834.19c-2.79.06-5.89.62-7.08-.49v-32.88c0-2.21-1.88-8.9-3.96-10.29-10.16-6.77-9.31,17.47-9.24,22.39.04,2.59-.14,5.98-.05,8.57.22,5.72-.11,20.81,3.64,24.55,2.78,2.77,28.87,1.07,34.2.19,3.39-.56,5.59-2.43,6.02-5.96-.02-8.65-17.37-6.21-23.53-6.08Z"/>
    <path class="cls-5" d="M1034.91,833.51c-17.26,3.5-16.15-27.06-.61-30.14,4.29-.85,12.01,1.66,12.83-4.3,1.15-8.4-10.31-9.18-16.22-8.16-21.73,3.74-28.97,42.66-8.44,53.27,9.7,5.01,31.38-1.49,26.33-11.58-2.98-5.96-10.61.25-13.89.91Z"/>
  </g>
  <path class="cls-5" d="M610.58,917.74c5.58,5.7-6.46,22.77-11.06,13.92.35-1.44,9.11-2.35,7.97-10.16-.32-2.17-2.67-2.89-2.29-5.17.56-.52,4.55.55,5.39,1.41Z"/>
  <polygon class="cls-2" points="473.21 846.17 502.56 824.12 539.97 824.12 566.55 838 585.72 858.78 594.51 881.27 589.32 894.78 609.81 908.24 617.98 934.16 603.28 947.85 577.96 947.85 568.57 938.87 539.97 951.94 489.53 938.87 465.25 918.04 465.25 899.3 442.38 906.06 424.41 891.04 420.74 869.45 422.78 856.79 434.21 850.25 448.69 846.98 473.21 846.17"/>
  <path class="cls-2" d="M441.68,1080.32l-9.19,11.65-1.59,21.33,10.77,8.36h10.48s10.33,3.62,12.03,1.83c1.36-1.43-2.15-10.19-2.15-10.19,0,0-7.54-13.56-3.11-17.46,4.43-3.9,12.64,3.4,12.64,3.4,0,0,5.94-1.45,5.47-4.86s-11.99-12.55-11.99-12.55l-6.13-10.29-17.25,8.77Z"/>
  <path class="cls-2" d="M499.77,1080l-13.78,20.99,5.32,4.61,12.02-6.67,6.73,4.57-4.19,12.96-1.91,11.56,5.55,2.02,9.7-7.08,13.73-5.74s3.93-6.73,2.66-12.96c-1.27-6.23-6.35-11.56-6.35-11.56l-17.34-12.07-12.13-.64Z"/>
  <path class="cls-2" d="M548.31,1071.55l-9.38,10.07-3.08,8.06,3.66,2.3,10.85-6.84,2.64,6.84v8.4l-2.49,3.52-4.25-4.84-2.79,3.08s.59,13.93,6.3,13.34c5.72-.59,12.46-6.01,12.46-6.01l11.37-10.12s4.32-2.2,2.7-10.99c-1.61-8.8-8.8-23.46-8.8-23.46l-9.82-.59-9.38,7.23Z"/>
  <path class="cls-5" d="M599.18,932.69c3.74-5.14,8.03-2.99,9.41-10.75.59-3.34-5.28-3.44-3.64-7.64,13.94,2.7,6.02,22.04-5.76,18.39Z"/>
  <path class="cls-1" d="M440.38,928.84l24.62-9.42s27.68,25.88,44.29,28.84c16.61,2.96,46.95.17,46.95.17l9.83,20.82-10.17,8.24-18.67,3.99,4.12,21.12-45.07,5.41-55.11-11.98-9.4-8.88,19.09-38.11-8.15-15.2-2.35-5Z"/>
  <polygon class="cls-2" points="462.68 705.18 468.14 696.52 474.28 696.52 480.63 694.78 487.43 692.07 492.31 693.97 497.38 693.21 501.52 695.8 504.11 706.99 497.38 718.28 474.17 718.28 459.05 713.93 462.68 705.18"/>
  <path class="cls-5" d="M509.91,1130.04c1.66-.56,4.55-1.77,5.85-2.16,4.18-1.24,6.4-3.03,10.5-5.56,1.56-.96,3.6-.62,5.68-2.26,3.86-3.05,4.97-12.32,4.34-17.01-1.48-11.09-16.88-15.79-16.84-21.66.01-1.42,5.33-10.64,6.41-13.93,6.19-18.83,6.04-40.74,5.99-60.38l5.73.73c2.22,20.41,7.7,41.29,7.36,61.71-1.19,4.93-17.06,19-8.55,23.22,7,3.47,13.03-5.69,13.61-5.11l1.14,11.34-5.15-2.3c-4.87-.6-4.27,4.92-3.92,8.55.84,8.72,8.42,16.39,16.5,9.65,3.34-2.78,7.43-6.82,10.8-9.57,1.87-1.53,4.26-1.86,6.22-3.99,8.43-9.12-1.77-25.5-3.74-36.09-2.87-15.48-1.85-34.21-3.86-50.6-1.58-12.89-4.01-26.88-7.75-39.22l6.56-6.1-7.71-17.16,5.09-3.71c15.34,12.56,35.52,9.11,47.67-6,14.55-18.1,7.84-46.45-16.45-49.95,1.92-12.63,1.39-24.84-4-36.63-1.36-2.98-5.53-9.65-6.21-11.58-.86-2.43,5.7.38,4.79-2.14-1.2-3.33-9.3-6.67-11.32-8.52-1.56-1.44,5.1-1.35,6.53-1.43,4.77-.25,11.99-1.6,6.39-4.59-26.74-14.28-71.92-20.28-109.65-6.56,4.47-21.54,4.12-47.72,10.32-68.51.56-1.87,5.07-12.26,5.84-12.88,1.2-.97,19.65-6.07,24.7-8.77,95.48-51.17,21.87-212.93-82.5-160.77-70.56,35.26-54.67,143.72,17.55,166.12,8.03,35.43-3.24,71.23-7.69,106.38-51.66-19.53-58.59,69.23-7.85,68.56,1.01,2.96,3.25,10.55,1.08,12.58-1.17,1.1-3.61,1.22-5.09,2.87-4.38,4.85,5.38,17.85,8.03,22.69-5.19,9.08-21.68,30.34-21.76,40.25-.03,3.21,3.6,3.15,3.94,4.59.2.86-3.58,14.23-4.07,17.29-1.87,11.76-3.11,20.43-1.35,32.41,1.85,12.61,6.71,24.62,13.49,35.33-12.66,13.44-18.16,40.8,5.6,45.44,3.89.76,6.43-.65,8.41-.34,3.62.58,4.58,5.77,11.97,1.29,10.05-6.09-1.38-13.94-2.81-18.55-1.02-3.32-.36-6.88-.5-10.27,2.98-.13,4,3.16,6.73,4.02,5.38,1.7,12.54-.32,11.48-6.83-.17-1.05-10.01-10.23-11.91-13.15-13.24-20.34-9.88-48.05,11.14-61.13,3.71.63,12.14,22.98,13.47,27.44,3.37,11.31,7.24,27.46,2.3,38.51-1.72,3.84-6.56,8.27-7.75,12.21-3.13,10.35,7.84,13.13,12.72,7.23,1.12-1.36,6.45-7.58,9.47.37,2.62,6.9-6.5,13.08-6.43,18.09.11,7.31,6.78,7.47,9.43,6.57ZM484.94,711.73c-2.67-2.32-1.87-10.43-.73-13.77.4-1.16,1.61-4.05,2.83-3.99,5.09.25,2.53,21.79-2.1,17.76ZM494.58,711.58c-3.64-1.68-2.29-11.94-.17-15.34,1.66-2.65,4.11-1.05,4.52,0,1.66,4.22.28,17.47-4.36,15.34ZM460.34,701.48c-26.88-13.34-42-51.68-26.69-81.3,21.39-41.38,79.38-31.51,93.49,12.12,8.15,25.21,4.65,61.04-23.66,69.61.31-3.74-.32-7.27-3.41-9.67-2.37-1.63-5.17.57-7.19.25-1.18-.19-2.4-2.1-4.72-2.06s-3.33,1.73-5.9,2.4c-1.46.38-2.27-.57-4.39-.04-1.96.49-2.77,1.69-4.06,1.99-1.18.27-3.38.2-4.71.51-2.08.49-5.32,5.8-7.3,7.08l-1.47-.89ZM477.63,711.97c-1.43,1.35-4.28,1.27-4.3-1.41s1.97-14.65,5.23-14.01c4,.77,1.37,13.26-.93,15.43ZM466.4,711.81c-4.28-.83.66-13.06,3.33-13.28,3.96-.33.79,14.07-3.33,13.28ZM442.22,894.1c-25.35,2.4-22.22-36.85-1.82-36.92,13.01-.04,9.2,34.68,1.82,36.92ZM457.88,1077.65c.3.18,2.48,4.65,3.65,5.99,3.5,4.01,7.71,7.43,11.29,11.37-4.2,4.77-6.38-.6-9.16-2.19-9.68-5.56-12.21,10.24-7.67,17.91,2.01,3.39,8.17,5.72,4.46,10.47-5.42,6.93-9.68-8.57-12.02-9.72-3.71-1.83-1.2,8.53-1.69,9.06-5.39,1.56-6.05-6.8-8.52-7.93-2.98-1.36-.31,4.5-3.37,3.38-6.12-2.23-3.99-18.75-1.21-23.87,2.82-5.19,18.6-17.79,24.24-14.46ZM528.99,1097.87c3.98,5.27,3.67,17.63-1.67,19.26-1.15.35-1.71-4.51-1.71-4.51,0,0-2.84,8.58-5.09,7.92-1.22-.36,0-5.1,0-5.1-1.94,2.94-9.39,11.44-13.25,10.17-5.59-1.84,4.64-6.25,6.29-13.86,1.29-5.94-1.5-14.62-6.78-17.79-8.46-5.09-13.69,15.7-18.04,8.41-2.79-4.67,10.35-19.13,10.35-19.13,1.79-1.18,11.46,1.22,13.93,2.23,2.88,1.18,14.21,10.04,15.98,12.39ZM564.18,1070.64c8.09,4.51,13.98,23.32,6.25,29.48v-3.42s-3.4,0-3.4,0c-.44,3.43-1.21,8.41-4.54,10.21l-1.7-6.8c-5.25,3.5-1.74,15.22-10.49,12.88-2.48-.99-4.03-6.95-3.7-9.48,2.01.11,1.9,4.04,4.06,4.49,6.29,1.31,5.87-21.25,3.34-24.95-3.2-4.67-11.11,4.98-13.66,6.83-2.78.48-1.79-2.01-1.19-3.46.41-.98,4.03-6.22,4.64-6.71,2.71-2.13,8.06-1.29,8.49-6.84,11.03,14.53,9.45-2.32,11.9-2.25ZM560.07,968.97c-.73,3.09-18.92,8.72-22.54,9.77l-1.29-11.77-2.12-1.29c-3.35,1.43-2.61,17.59-2.31,21.61.35,4.69,2.42,8.75,2.39,13.46-.25.94-4.22,1.5-5.31,1.68-16.91,2.73-48.14.21-65.12-3.83-4.37-1.04-31.14-9.06-31.68-11.46l19.93-38.47-9.73-19.75,17.88-5.61c20.76,29.06,60.26,40.34,94.29,30.5l5.61,15.17ZM554.6,900.02c-.81,2.73,5.66,8.09,6.99,10.96,8.53,18.53-13.78,30.66-29.3,32.45-17.84,2.06-44.89-7.6-57.14-20.9-15.2-16.49-15.71-38.08,10.09-41.47,1.41-5.34-3.43-7.43-5.41-10.85-5.5-9.49-1.15-22.52,6.74-29.23,15.98-13.59,35.1-5.99,44.83,10.6,21.96-12.19,47.81,1.32,43.3,27.61-2.17,12.66-10.61,14.92-20.09,20.83ZM599.98,923.67c-.28,8.11-7.8,18.31-16.49,17.68-16.48-1.19-5.06-33,2.51-35.07,7.58-2.07,14.2,11.06,13.98,17.39Z"/>
  <path class="cls-5" d="M373.72,653.02c-.77-22.56-1.91-49.77-5.53-71.67-3.05-18.42-25.37-18.49-34.26-4.17l-41.92,87.26c-.75.57-2.07-1.96-2.48-2.61-16.05-25.68-27.39-64.96-45.91-87.53-13.43-16.37-34.68-4.98-36.28,12.45-3.83,41.49-2.72,85.8-.04,127.11.53,8.09,1.49,19.21,9.47,23.43,12.85,6.81,24.04-2.62,25.63-15.66,3.04-25.03-.9-42.64,1.64-68.2,6.88,9.22,11.81,20.71,17.19,31.04,5.25,10.07,13.98,30.44,21.72,36.11,9.08,6.64,20.45,3.38,25.63-6.01,7.78-14.11,28.5-57.81,28.5-57.81,3.12,23.91,1.03,48.89,6.75,73.16,4.06,17.22,33.17,13.94,33.15-13.89,0-20.7-2.55-42.17-3.26-63.02Z"/>
  <path class="cls-5" d="M728.38,622.42c-.69-12.65.46-27.23-1.06-39.78-2.36-19.53-32-21.91-33.77,2.59-.98,13.6-1.23,32.83-.59,46.92.77,16.83,1.08,33.68,2.27,50.47-15.71-18.93-30.78-38.65-45.17-58.63-7.45-10.35-29.55-47.43-37.27-52.36-17.04-10.91-30.48,5.9-29.93,23.13,1.18,36.53,2.21,73.66,4.57,110.01.81,12.43-1.14,33.37,17.6,33.54,21.33.2,17.2-30.76,16.28-44.8-1.15-17.65,0-34.25-2.11-51.15l-.31-4.56c18.07,24.99,38.54,54.59,57.72,78.76,9.97,12.57,22.31,30.89,41.12,25.43,4.41-1.28,9.56-6.08,11.24-10.31,2.73-6.87,1.7-27.51,1.48-36.05-.65-24.77-.73-48.45-2.08-73.2Z"/>
  <path class="cls-5" d="M946.51,579.33c-9.19.35-30.27,1.05-38.23,3.75-9.16,3.1-13.74,12.71-14.52,21.78-1.82,21.11-1.23,44.03-.66,65.05.46,16.89,1.12,37.77,2.96,54.11,1.23,10.91,10.04,19.2,20.95,19.9,22.62,0,54.71,1.44,76.89-1.79,17.76-2.59,18.55-25.61.95-30.38-6.29-1.7-10.04-1.48-15.32-1.52-16.54-.14-33.05-.41-49.42-.39v-28.46c5.9-.05,12.61.11,17.88-.15,13.11-.64,34.32,1.02,44.53-2.85,12.77-4.83,12.7-23.83-.41-29.27-10.39-4.31-18.54-3.06-28.48-2.94-11.12.14-22.3.95-33.4.87l-2.23-30.65-.18-1.58c15.56-.44,32.67-1.48,48.29-1.46,8.32,0,14.62.96,23.33-3.67,11.34-6.03,9.57-22.25-1.18-27.55-8.99-4.43-40.34-3.24-51.74-2.81Z"/>
  <path class="cls-5" d="M870.44,712.22l-47.97-61.01c-.45-2.98,35.93-37.29,40.73-42.87,3.3-3.83,7.96-8.93,8.77-13.92,2.66-16.38-13.37-25.79-26.88-16.67l-61.35,61.75v-52.75c0-.38-1.41-6.61-1.68-7.4-6.58-19.2-33.03-13.13-33.18,6.58l1.91,137.01c.85,9.13,5.46,16.92,15.31,17.6,26.98,1.87,16.66-35.31,19-51.45l12.82-13.26,45.97,58.39c17.09,17.66,40.74-1.98,26.55-22.01Z"/>
  <path class="cls-5" d="M1246.68,731.99c27.78-23.76,24.44-73.35-10.25-88.48-13.49-5.89-24.03-5.22-37.49-7.9-14.01-2.78-13.78-23.79,2.27-28.11,12.54-3.37,25.89,6.28,33.96,7.91,14.64,2.96,24.31-12.81,15.85-24.03-8.63-11.45-33.37-19.7-48.85-17.33-52.23,8-61.64,83.42-13.64,94.65,13.23,3.1,39.72-.36,42.13,17.99,2.96,22.47-18.02,28.95-34.47,16.33-11.79-9.04-16.93-31.12-35.41-22.87-14.78,6.6-9.17,22.63-1.96,33,19.18,27.59,59.74,42.88,87.85,18.83Z"/>
  <g>
    <path class="cls-5" d="M612.06,501.82c.92,16.76,1.51,34.61,21.04,34.2,24.73-.52,53.63.45,77.79-1.95,5.01-.5,11.03-1.78,14.59-5.41,9.03-9.19,4.28-27.01-8.56-29.62-10.05-2.04-36.26-.67-47.81-.32-6.19.18-13.15-.14-19.81-.17-.16-5.4-.14-9.43-.3-14.83-.09-3.05-.36-13.48.28-14.14,7.7.09,16.02.03,23.44-.27,32.27-1.34,52.81,3.54,52.38-19.8-.25-13.58-13.26-16.35-24.91-16.24-3.41.03-7.41.09-10.55.12-13.48.11-28.43.39-41.88.69-.96-6.28-.63-12.12-.86-18.71-.11-3.42-.61-13.95-.08-16.02,4.01-.26,10.26.14,14.39-.18h40.13c2.65.12,5.21.15,7.57,0h.04c.35-.03.71-.04,1.05-.07,16.47-1.46,28.43-18.15,15.81-30.8-1.65-1.66-7.51-4.77-9.88-5.13-11.79-1.82-23.24-.26-34.62-.19-16.34.09-33.85-.94-50.25,1.63-10.28,1.61-17.53,6.66-19.04,16.82-1.35,9.04-1.05,17.29-1.04,25.45.04,31.19-.59,63.97,1.1,94.96Z"/>
    <path class="cls-5" d="M771.22,536.48c23,1.44,52.88,1.24,77.44-.32,21.83-1.38,25.39-33.76-1.84-36.12-19.66-1.7-41.89.89-61.79-.79-.85-4.12-2.85-27.08-.07-29.03,3.24-2.28,53.35-.21,61.39-2.26,19.53-4.88,19.04-31.28-.49-33.74-11.08-1.39-27.17-.88-39.76-.5-7.4.22-14.86.34-22.25.56l-1.26-35.77c5.61-.07,10.13.09,15-.18,16.06-.89,39.73-.1,54.49-2.8,19.12-3.49,19.18-30.07-2.91-33.07-17.55-2.39-56.08-.88-74.34,1.11-24.48,2.67-29.93,14.04-29.49,37.87.63,33.74.26,70.99,2.4,104.45,1.02,15.93,5.2,29.43,23.46,30.58Z"/>
    <path class="cls-5" d="M458.44,462.09c.65,17.82-1.99,41.62,1.42,58.62,2.49,12.36,16.88,18.05,27.27,11s4.52-41.75,7.28-58.16l52.92-.67c2.75,14.79,1.49,31.88,4.35,47.04,3.38,17.88,25.48,20.79,32.17,4.04,3.38-8.48,1.95-16.28,1.84-25.6-.36-30.07-.77-60.34-2.36-90.29-.4-7.63-.49-21.38-2.07-27.95-4.96-20.62-30.98-19.92-33.54,2.8-1.93,17.12-.3,36.47.4,53.45l-55.04.66c-.38-19.56,1.09-44.23-3.74-62.5-3.44-13.01-21.98-13.16-29.87-2.57-4.7,6.3-4.9,14.26-4.73,21.8.53,22.7,2.88,45.73,3.71,68.34Z"/>
    <path class="cls-5" d="M879.53,469.82c.8,17.15.41,36.77,2.87,53.55,3.77,25.74,33.55,23.1,36.02,1.21,1.21-10.74-.89-27.69-1.36-37.55-.09-1.96,4.86-5.44,11.48-9.86,11.92,14.93,21.72,31.87,33.75,46.68,5.92,7.3,10.97,15.62,21.49,15.83,13.62.28,22.42-15.07,15.6-26.51-10.22-17.14-45.58-64.72-45.58-64.72.17-1.79,8.68-10.17,10.57-12.42,9.46-11.26,25.74-26.32,33.02-37.74,9.52-14.93-.86-30.71-18.35-27.94-6.83,1.08-22.22,18.16-27.71,23.92-12.2,12.8-22.61,27.53-35.4,39.64-2.26-15.71-.23-31.67-1.22-47.42-.78-12.37-2.58-27.45-19.23-26.7-15.15.68-18.34,13.54-18.03,25.54.72,27.83.77,56.67,2.07,84.48Z"/>
    <path class="cls-5" d="M433.77,475.96c-13.79-8.87-23.84,5.43-33.81,11.81-21.19,13.56-53.72,2.6-61.47-22.93-4.71-15.52,1.1-38.73,11.8-50.75,15.73-17.68,38.26-20.64,52.68-2.8,1.93,2.39,3.66,4.67,5.4,6.96,15.71,20.72,42.98,3.42,29.28-20.02-15.38-26.31-42.99-36.32-69.56-32.39-45.8,6.77-66.78,46.66-69.39,84.31-4.67,67.29,73.85,104.12,125.98,64.72,11.68-8.83,25.21-28.56,9.1-38.91Z"/>
    <path class="cls-5" d="M1012.7,398.72c12.87,23.71,34.5,55.68,48.74,78.95,1.19,15.35-.51,24.23,1.01,39.4,1.36,13.6,10.02,21.73,24.04,18.06,19.09-5,12.13-43.68,13.27-58.19,13.22-24.46,29.49-50.81,41.82-75.52,5.43-10.89,11.18-30.15-5.15-36.63-17.97-7.14-29.22,23.98-36.5,36.63-4.78,8.29-12.34,23.99-16.56,31.45-.83,1.48-2.25,3.61-3.22,5.57-8.3-12.64-16.98-30.73-25.63-43.12-4.15-5.94-12.56-21.6-17.6-25.64-15.51-12.42-33.98.57-27.91,19.51.76,2.37,2.47,7.3,3.68,9.53Z"/>
  </g>
  <path class="cls-5" d="M1096.84,740.99c15.14-10.04,3.22-39.35,7.14-54.13.69-2.59,8-14.11,10.04-17.76,5.48-9.81,10.72-19.01,16.04-28.89,6.76-12.54,31.67-46.1,10.39-54.42-18.53-7.25-31.76,22.94-39.22,35.93-4.52,7.87-9.81,18.57-13.2,27.01-1.2-.38-2.46-2.93-3.4-4.53-6.65-11.3-15.47-24.72-23.13-35.7-7.37-10.56-16.92-28.86-32.4-23.72-14.23,4.73-11.01,19.57-5.31,29.66,12.35,21.89,31.95,52.38,45.84,73.6,2.5,16.13-1.67,26.23,1.66,42.27,2.31,11.12,15.71,17.17,25.53,10.66Z"/>
  <path class="cls-5" d="M495.53,913.5c-7.72-6.95-9.96-12.63-10.23-23.25l-4.5-.02c-.95,10.17,2.1,19.15,9.67,26.07,1.69,1.55,9.91,7.77,11.88,5.7,3.13-3.29-4.89-6.76-6.81-8.49Z"/>
  <path class="cls-5" d="M508.03,882.88c-.98,1.99,2.02,2.1,3.17,2.45,3.97,1.18,7.25,1.8,11.19,3.58,1.87.85,10.11,6.25,10.58,5.86.42-.35.84-2.9.14-3.98-2.64-4.03-22.47-13.21-25.08-7.91Z"/>
  <path class="cls-5" d="M540.85,888.6c2.14,1.5,6.42,1.05,8.12-1.09,1.71-2.16,1.37-7.65-.38-9.48-4.73-4.92-13.62,6.45-7.74,10.57Z"/>
  <path class="cls-5" d="M507.45,861.88l-.57,4.53c-.6.66-15.2-6.95-15.87,1.13,5.59-2.73,14.03,5.19,16.57,5.58,4.11.64,3.63-9.86-.13-11.24Z"/>
  <path class="cls-5" d="M509.16,886.84c-1.42,2.82,3.1,10.54,5.66,7.93,1.62-1.65-2.34-8.63-5.66-7.93Z"/>
  <path class="cls-5" d="M520.93,898.2c.68,2.21,8.7,2.08,9.67-1.18-1.79-2.6-10.74-2.32-9.67,1.18Z"/>
  <path class="cls-5" d="M440.16,886.64c3.89.18-5.08-4.24-5.49-9.75-.58-7.86,8.67-7.94,6.23-9.73-9.94-7.31-17.95,18.67-.74,19.48Z"/>
  <path class="cls-5" d="M587.12,913.6c-1.23,1.98,4.81,4.94,1.45,12.07-1.45,3.07-6.86,4.75-5.79,6.33,1.67,2.47,8.39.23,10.29-7.03,1.83-6.98-4.45-13.81-5.96-11.38Z"/>
  <g>
    <ellipse class="cls-6" cx="511.22" cy="966.25" rx="3.76" ry="3" transform="translate(-495.46 1392.39) rotate(-85.06)"/>
    <ellipse class="cls-2" cx="511.2" cy="966.42" rx="2.86" ry="2.28" transform="translate(-495.64 1392.53) rotate(-85.06)"/>
    <ellipse class="cls-6" cx="523.62" cy="971.1" rx="3.76" ry="3" transform="translate(-565.19 1149.16) rotate(-70.95)"/>
    <ellipse class="cls-2" cx="523.51" cy="971.15" rx="2.86" ry="2.28" transform="translate(-565.31 1149.08) rotate(-70.95)"/>
    <ellipse class="cls-4" cx="515.63" cy="973.88" rx="6.77" ry="7.16" transform="translate(-579.53 1096.13) rotate(-68.47)"/>
    <ellipse class="cls-2" cx="514.8" cy="976.44" rx="6.77" ry="7.82" transform="translate(-582.43 1096.98) rotate(-68.47)"/>
    <path class="cls-6" d="M516.9,967.2c.03-.17.13-.96-.71-1.49-.03-.02-.02-.07.02-.08.26,0,.87.08,1.33.81.02.03.07.02.07-.01.08-.3.37-1.22,1.02-1.43.03-.01.06.02.05.05-.13.3-.59,1.42-.37,1.71.01.01.03.02.04.01.14-.05.83-.26,1.16-.18.03,0,.04.05.02.07-.21.17-.95.8-.99,1.25,0,.03-.03.05-.06.03l-1.56-.72s-.03-.03-.02-.04Z"/>
    <ellipse class="cls-3" cx="518.98" cy="969.81" rx=".4" ry=".29" transform="translate(-559.75 1184.77) rotate(-73.12)"/>
    <ellipse class="cls-3" cx="514.77" cy="968.53" rx=".4" ry=".29" transform="translate(-561.52 1179.84) rotate(-73.12)"/>
  </g>
  <path class="cls-2" d="M462.41,737.7s1.84,8.7,2.21,14.33c0,0,5.92-4.49,8.46-5.86s7.97,5.89,8.79,7.8c0,0,7.19-4.48,8.37-6.02s3.21-8.21,3.21-8.21c0,0-14.77,2.78-31.03-2.04Z"/>
  <path class="cls-7" d="M435.98,993.18s-37.71-10.69-47.43,21.41c-6.33,20.92-4.49,31.84-14.08,32.37-3.94.22-9.06-3.25-11.6-11.5-3.29-10.67-16.4-8.23-13.92,5.27,1,5.43,4.36,13.67,12.52,17.93,13.32,6.96,27.48,3.37,32.52-6.45,6.02-11.74,5.37-26.2,12.75-35.67,6.17-7.91,12.63-6.42,20.17-3.78,7.55,2.64,9.07-19.59,9.07-19.59Z"/>
</svg>